<svg version="1.1" id="Layer_1" xmlns="http://www.w3.org/2000/svg" xmlns:xlink="http://www.w3.org/1999/xlink" x="0px" y="0px"
	 width="100%" viewBox="0 0 476 404" enable-background="new 0 0 476 404" xml:space="preserve">
<path fill="#FFFFFE" opacity="1.000000" stroke="none" 
	d="
M249.000000,405.000000 
	C166.023422,405.000000 83.546844,405.000000 1.035132,405.000000 
	C1.035132,270.394989 1.035132,135.789978 1.035132,1.092479 
	C159.559921,1.092479 318.119904,1.092479 476.839966,1.092479 
	C476.839966,135.666519 476.839966,270.333252 476.839966,405.000000 
	C401.123291,405.000000 325.311646,405.000000 249.000000,405.000000 
M62.800293,298.789734 
	C62.800293,298.789734 62.585060,298.909546 62.274231,299.143402 
	C62.085354,299.336029 61.972378,299.565918 61.731350,300.325775 
	C61.446079,300.531067 61.160805,300.736359 60.103046,300.966370 
	C57.575108,301.877167 55.047173,302.787994 52.519234,303.698792 
	C52.838936,303.867340 53.158638,304.035919 53.478340,304.204468 
	C51.778503,307.786621 50.078663,311.368744 47.828899,316.109741 
	C50.622669,314.645538 52.711067,313.726074 54.604572,312.504547 
	C56.185642,311.484497 57.538517,310.110809 59.008251,309.704956 
	C59.159687,311.013489 59.311127,312.322021 59.462566,313.630554 
	C60.135853,313.650177 60.809143,313.669800 61.482433,313.689423 
	C61.650253,311.125000 61.818077,308.560547 62.258347,305.440063 
	C62.534470,304.679688 62.810593,303.919312 63.060966,303.075287 
	C63.060966,303.075287 63.147720,303.086884 63.601162,303.086273 
	C63.601162,303.086273 64.053230,303.045288 64.669228,302.973175 
	C65.087166,302.581055 65.505112,302.188934 66.110329,301.387573 
	C66.304565,301.135773 66.559395,300.989624 67.387360,300.808716 
	C67.587738,300.527649 67.788116,300.246552 68.268280,299.413330 
	C69.439957,298.578979 70.611633,297.744659 72.331444,296.783936 
	C72.539841,296.485992 72.748245,296.188080 73.313248,295.321106 
	C77.565376,291.885315 81.817505,288.449524 86.507607,284.891571 
	C86.788544,284.738312 86.978073,284.509369 87.077118,284.096954 
	C87.077118,284.096954 87.184525,284.106110 87.766083,284.028412 
	C88.160889,283.641998 88.555695,283.255615 89.127930,282.388519 
	C89.210320,282.062134 89.292717,281.735718 89.088081,281.298492 
	C89.088081,281.298492 89.388885,281.363251 89.827461,281.307220 
	C90.127625,281.194092 90.316162,280.981873 90.554306,280.581818 
	C90.554306,280.581818 90.704720,280.475769 91.236000,280.298950 
	C92.041962,279.796875 92.847916,279.294830 94.423096,278.876923 
	C97.262703,277.617828 101.213371,277.580139 101.187973,272.499298 
	C101.406166,272.248230 101.676643,272.082520 102.471703,271.848328 
	C102.769661,271.660980 102.953766,271.394867 103.006439,270.996613 
	C103.006439,270.996613 103.048378,271.034210 103.769630,271.040131 
	C104.483177,270.301178 105.196724,269.562195 106.232765,268.306183 
	C107.172112,267.544128 108.111465,266.782104 109.792465,266.029907 
	C110.579834,265.813416 111.526360,265.806244 112.129555,265.347595 
	C117.268921,261.439606 122.365227,257.473297 127.370773,253.397186 
	C127.570404,253.234604 126.730553,251.795517 126.178825,250.331268 
	C125.610252,249.763306 125.041687,249.195358 124.389397,248.630173 
	C124.389397,248.630173 124.393143,248.546509 124.279526,247.949554 
	C123.502022,246.997330 122.724510,246.045105 121.995407,244.244308 
	C122.047836,239.315338 118.305405,241.325150 115.972893,241.087372 
	C112.597115,240.743256 112.963058,243.157471 113.060867,245.879044 
	C112.984283,246.238113 112.907692,246.597198 112.613396,247.083618 
	C112.613396,247.083618 112.564751,247.331116 112.052620,247.532379 
	C111.885796,247.845123 111.718964,248.157867 111.511009,248.551468 
	C111.511009,248.551468 111.429138,248.512390 110.837273,248.678268 
	C109.846230,249.437225 108.855186,250.196182 107.443428,251.127579 
	C107.179543,251.309921 107.017380,251.558609 106.738152,252.470978 
	C106.602272,252.870132 106.466393,253.269287 106.088814,253.740723 
	C106.088814,253.740723 105.994873,253.974869 105.427589,254.115723 
	C105.130356,254.592926 104.833122,255.070145 104.541992,255.733749 
	C104.541992,255.733749 104.463326,255.564667 103.927116,255.688034 
	C103.360489,256.166687 102.793861,256.645325 101.393120,257.052307 
	C99.369049,256.916931 97.344971,256.781555 95.152679,256.634918 
	C95.949707,258.823334 96.598717,260.605347 96.914619,262.951813 
	C91.702148,268.354340 86.489677,273.756866 80.494980,279.067261 
	C77.097443,279.241730 76.239502,281.379242 76.351822,284.353516 
	C76.351822,284.353516 76.325989,284.431427 75.589149,284.205353 
	C74.416855,285.828125 73.244560,287.450867 71.994568,289.015961 
	C71.994568,289.015961 72.080772,289.057465 71.579269,289.204865 
	C71.401077,289.492371 71.222885,289.779846 71.011490,289.995667 
	C71.011490,289.995667 71.062378,290.056946 70.294106,290.018555 
	C69.567184,291.077057 68.840271,292.135559 67.928741,293.595215 
	C67.750587,293.844421 67.515160,294.014191 66.652924,294.237000 
	C66.469009,294.563660 66.285095,294.890350 65.813087,295.758362 
	C65.108345,296.491150 64.403603,297.223938 63.374550,298.073364 
	C63.170441,298.192566 63.013508,298.356842 62.800293,298.789734 
M161.018829,169.718414 
	C160.724319,170.165710 160.429825,170.613022 159.423996,171.099487 
	C155.689835,177.455627 150.744064,182.791763 145.396317,187.792740 
	C145.331055,187.853745 145.444824,188.106186 145.631561,189.114456 
	C150.262543,186.723831 155.693466,186.285629 158.910721,180.927551 
	C159.591187,180.999405 160.271637,181.071243 160.890793,181.434494 
	C160.890793,181.434494 160.819794,181.723694 160.920212,182.450851 
	C161.455597,188.329178 163.486923,191.992920 166.773911,192.432800 
	C165.901047,190.074432 165.082687,187.863358 164.168457,185.393250 
	C167.482895,184.895859 169.699585,184.392975 171.898224,187.916183 
	C174.584381,192.220566 178.781876,195.581818 183.402924,200.496506 
	C184.708694,194.977356 190.702438,193.767899 189.297455,187.676895 
	C189.597366,187.477203 189.897278,187.277496 190.927002,187.046219 
	C191.796127,185.908112 192.665253,184.770004 193.612686,183.605927 
	C193.612686,183.605927 193.592331,183.525986 194.325607,183.787384 
	C196.635712,182.089859 198.768997,180.032776 201.301437,178.787338 
	C204.351715,177.287231 204.448776,175.487701 203.205246,172.395126 
	C204.101364,171.579773 204.997482,170.764435 206.642441,169.994934 
	C209.823898,168.506363 213.005356,167.017807 215.445267,165.876205 
	C220.416992,156.972290 226.191254,149.517395 234.470978,144.148880 
	C233.930328,143.000320 233.389679,141.851776 233.041138,140.101761 
	C234.068207,139.078400 235.095276,138.055038 236.532242,136.864822 
	C236.790863,136.694168 236.959610,136.459015 237.026688,136.052582 
	C237.026688,136.052582 237.134003,136.058075 237.892838,136.044312 
	C240.182144,134.929703 242.996567,134.308777 244.626892,132.574646 
	C246.633240,130.440536 248.435287,129.305298 251.393829,128.600143 
	C253.578217,128.079498 256.919556,123.245560 256.599976,122.845413 
	C254.170639,119.803543 256.472839,117.373276 256.993683,114.356422 
	C256.993683,114.356422 257.273529,114.053902 257.982391,114.024902 
	C261.206177,113.364677 264.429962,112.704453 268.289185,111.914085 
	C266.265381,110.211281 264.786652,108.967117 263.677277,107.122856 
	C268.092285,101.069725 272.507294,95.016594 277.051208,88.709999 
	C277.239929,88.734474 277.428650,88.758942 277.617371,88.783409 
	C277.400269,88.848969 277.183167,88.914528 276.683258,89.617332 
	C273.272369,92.676437 269.782867,95.653046 266.467896,98.812767 
	C260.550781,104.452721 254.739105,110.203247 248.991379,115.986137 
	C248.991379,115.986137 248.905350,115.883919 248.275467,116.074791 
	C246.778137,117.654526 245.280823,119.234268 243.950882,120.938698 
	C243.950882,120.938698 243.817062,120.778503 243.150436,120.915359 
	C240.396713,123.592232 237.642990,126.269104 234.398438,129.104126 
	C234.285721,129.233917 234.173019,129.363708 233.484756,129.553879 
	C232.766815,130.382553 232.048874,131.211227 230.786224,132.426041 
	C229.759521,133.236053 228.732803,134.046066 227.150131,134.582474 
	C221.917236,135.424255 216.450150,140.756668 214.865860,146.793579 
	C214.466141,147.418839 214.066406,148.044113 213.872879,148.724899 
	C213.872879,148.724899 213.697189,148.603531 213.358780,148.505173 
	C213.358780,148.505173 213.005905,148.466141 212.419403,148.174438 
	C209.845459,149.761200 206.456360,150.782974 204.878189,153.059921 
	C202.137512,157.014084 200.108200,156.449356 196.974319,153.278976 
	C196.743729,154.953690 196.888824,156.278015 197.288666,157.520340 
	C197.653381,158.653503 198.294250,159.697815 198.125031,160.925583 
	C194.699203,162.769913 190.921371,164.281525 190.574387,169.395325 
	C190.574387,169.395325 190.663193,169.807144 190.798187,169.837128 
	C190.798187,169.837128 190.747620,169.708420 190.199387,169.772812 
	C189.845245,169.873001 189.491119,169.973190 188.362930,170.010635 
	C184.159210,170.422623 182.502106,173.168488 181.773972,177.430527 
	C181.493057,177.613419 181.212143,177.796295 180.181442,177.980637 
	C177.394440,178.551315 174.607422,179.121994 172.157730,179.623596 
	C171.510574,176.869965 171.169510,175.418686 170.670151,173.450241 
	C170.582962,173.292450 170.495773,173.134674 170.800598,172.333023 
	C170.982941,171.865051 171.165268,171.397079 172.007034,170.823853 
	C176.352310,166.005402 175.818726,159.967957 176.827744,153.929733 
	C181.318756,150.139008 182.039490,145.414551 179.480530,139.725220 
	C181.384766,140.079498 182.485031,140.284195 183.126358,140.403519 
	C183.429214,137.191788 183.700058,134.365601 183.959717,131.538391 
	C184.040207,130.662201 184.090332,129.783203 184.154373,128.905502 
	C183.089157,128.899796 181.381577,128.475494 181.066666,128.958755 
	C179.451187,131.437759 178.194077,134.150330 176.096893,136.943420 
	C171.234161,139.529419 167.837708,145.856262 169.471695,149.486420 
	C164.255432,151.926834 164.073547,156.318695 165.021744,161.703888 
	C164.733521,162.159225 164.445297,162.614548 163.389069,163.136963 
	C162.961014,164.493698 162.532974,165.850418 162.058548,167.647461 
	C162.058548,167.647461 161.808350,168.012726 161.403931,168.276917 
	C161.167450,168.526306 161.058670,168.822586 161.018829,169.718414 
M105.345589,228.894135 
	C104.869896,229.249374 104.394203,229.604614 103.404343,230.075577 
	C103.280090,230.199753 103.155838,230.323944 102.390121,230.410034 
	C101.204163,231.249283 100.018204,232.088531 98.343651,233.006027 
	C98.343651,233.006027 97.952736,233.309372 97.260529,233.356247 
	C93.070602,235.861649 88.880676,238.367050 84.171417,240.921783 
	C83.763222,241.219742 83.355026,241.517700 82.209679,241.870422 
	C80.440971,242.748856 78.672264,243.627289 75.937531,244.985504 
	C81.762688,247.267761 85.524376,244.725449 90.183296,243.229385 
	C91.115303,242.943771 92.047310,242.658157 93.610962,242.545090 
	C94.567101,242.094147 95.523232,241.643188 97.290413,241.175232 
	C100.950302,240.309738 104.608635,239.437576 108.270424,238.580185 
	C115.672424,236.847046 115.673813,236.850143 113.293495,229.901489 
	C112.975327,228.972717 112.865448,227.839325 112.248512,227.192062 
	C111.822708,226.745361 110.689278,226.973160 109.182930,226.917221 
	C108.088768,227.586563 106.994606,228.255905 105.961243,228.982864 
	C105.961243,228.982864 105.962509,228.899109 105.345589,228.894135 
M60.089447,167.801163 
	C60.089447,167.801163 60.185009,167.799713 60.115555,168.553757 
	C61.688770,169.390320 63.261986,170.226898 65.488647,171.304749 
	C74.378365,177.019272 83.285400,182.707092 92.152359,188.456711 
	C99.357803,193.128922 106.515182,197.875259 113.692139,202.587585 
	C115.505386,200.060455 117.021828,198.093109 118.376984,196.020340 
	C119.978081,193.571396 120.124069,191.508133 116.899918,190.038406 
	C105.258667,184.731689 93.682671,179.282043 82.059654,173.934998 
	C76.602592,171.424576 71.094505,169.025024 65.974571,165.861191 
	C67.413429,163.438324 65.834358,163.496674 64.010750,162.876480 
	C60.491051,161.679474 56.703609,160.438583 53.914856,158.139252 
	C50.619473,155.422256 48.234703,155.858673 45.335381,157.895966 
	C47.038803,160.168961 48.550335,162.185898 50.250999,164.455200 
	C50.955273,164.418228 52.194241,164.353180 54.395100,164.237640 
	C53.014301,165.545181 52.329010,166.194122 51.643719,166.843048 
	C51.758503,167.160919 51.873283,167.478775 51.988068,167.796646 
	C54.143814,167.455444 56.299561,167.114258 58.769100,166.787079 
	C58.769100,166.787079 58.994255,167.006088 59.234726,167.469070 
	C59.546150,167.597427 59.857574,167.725784 60.089447,167.801163 
M111.440994,208.559341 
	C110.773247,208.076401 110.119881,207.199463 109.435417,207.174484 
	C105.000328,207.012604 100.557365,207.086578 96.119049,206.989059 
	C85.655777,206.759155 75.194542,206.359650 64.730568,206.279739 
	C61.156101,206.252441 57.575912,206.973801 53.998337,207.353088 
	C54.033180,207.816101 54.068024,208.279099 54.102867,208.742111 
	C55.515568,208.742111 56.928268,208.742111 59.082684,208.889267 
	C73.800949,212.160599 88.513275,215.459000 103.240074,218.691467 
	C110.237526,220.227371 110.250023,220.170425 111.406754,212.698578 
	C111.295799,212.118393 111.184845,211.538223 111.036842,210.302261 
	C111.012733,209.865082 110.988625,209.427887 111.440994,208.559341 
M153.648941,230.086929 
	C162.504486,228.782410 164.839722,225.951096 164.270157,217.209442 
	C163.839111,210.593552 161.360718,208.808060 152.484726,208.725571 
	C151.652008,208.717834 150.815186,208.787933 149.986954,208.728500 
	C147.313766,208.536606 144.377838,208.629501 144.388870,204.721832 
	C144.400131,200.732727 147.547485,200.853317 150.095596,200.807404 
	C154.194275,200.733536 158.300903,201.100632 162.476868,201.284607 
	C162.476868,199.029999 162.476868,197.129852 162.476868,194.882706 
	C156.676590,194.882706 151.189484,194.646683 145.730896,194.940475 
	C138.359085,195.337219 135.703735,198.466232 135.896484,205.782059 
	C136.064758,212.169174 139.115753,214.922195 146.215668,215.074005 
	C147.547668,215.102493 148.880936,215.093918 150.213318,215.077194 
	C153.309158,215.038345 155.986160,215.512390 155.907654,219.532227 
	C155.830704,223.472931 153.070953,224.087234 150.060410,223.995636 
	C145.761337,223.864838 141.470566,223.461182 137.055969,223.166016 
	C137.055969,225.247284 137.055969,227.317642 137.055969,230.145294 
	C142.531952,230.145294 147.670303,230.145294 153.648941,230.086929 
M140.071869,179.415726 
	C143.769287,179.227722 147.466705,179.039734 151.692673,178.824860 
	C147.100494,156.001587 142.705139,134.156525 138.309799,112.311485 
	C137.521118,112.426598 136.732437,112.541710 135.943771,112.656822 
	C136.277115,116.614464 136.726624,120.566330 136.923843,124.530754 
	C137.823059,142.606415 138.651382,160.685608 140.071869,179.415726 
M239.802200,216.597565 
	C239.804642,215.431503 239.814865,214.265396 239.808289,213.099380 
	C239.768112,205.982254 238.383591,204.181717 231.337952,203.572189 
	C226.737885,203.174240 222.075424,203.497131 217.395584,203.497131 
	C217.395584,205.633286 217.395584,207.187592 217.395584,208.741959 
	C231.150970,208.392868 231.150970,208.392868 231.504700,213.887894 
	C227.878220,213.887894 224.267975,213.728943 220.677170,213.925262 
	C215.334549,214.217361 215.069275,218.155441 215.064453,222.204498 
	C215.059860,226.062744 215.223831,229.936905 220.393204,230.088165 
	C226.717972,230.273239 233.052292,230.132248 239.803146,230.132248 
	C239.803146,225.485214 239.803146,221.523819 239.802200,216.597565 
M305.992798,211.853516 
	C306.290161,206.455292 303.597931,203.761459 298.329834,203.644638 
	C293.415436,203.535645 288.496735,203.621353 283.136688,203.621353 
	C283.401947,205.912872 283.578033,207.433884 283.752228,208.938538 
	C297.389832,207.656143 297.901398,207.836487 297.418152,213.891632 
	C293.975067,213.891632 290.491882,213.754868 287.023438,213.922470 
	C281.272614,214.200348 281.408234,218.499939 281.350769,222.597870 
	C281.294830,226.587616 281.895447,230.104019 287.042328,230.128876 
	C293.219391,230.158722 299.396729,230.135941 305.994537,230.135941 
	C305.994537,224.025665 305.994537,218.399521 305.992798,211.853516 
M170.552322,207.303284 
	C170.183014,212.852203 169.592773,218.401031 169.590210,223.950119 
	C169.589523,225.452286 171.069260,227.325333 172.386780,228.384964 
	C175.666977,231.023102 188.536880,230.926132 192.128937,228.538101 
	C197.260956,225.126343 196.923203,208.215546 191.659210,205.018539 
	C186.495621,201.882492 175.833893,202.704590 170.552322,207.303284 
M209.383560,200.638306 
	C209.383560,197.892151 209.383560,195.145996 209.383560,192.390045 
	C206.470459,192.390045 204.332611,192.390045 201.967560,192.390045 
	C201.967560,204.951294 201.967560,217.355286 201.967560,229.776840 
	C204.499771,229.776840 206.772476,229.776840 209.366928,229.776840 
	C209.366928,220.229874 209.366928,210.915955 209.383560,200.638306 
M257.981781,210.237350 
	C259.729156,210.075836 261.476532,209.914322 263.237579,209.751541 
	C263.237579,207.457001 263.237579,205.510803 263.237579,203.566727 
	C257.569214,203.845062 252.100815,204.113571 246.521698,204.387512 
	C246.521698,212.757080 246.521698,221.143585 246.521698,229.778976 
	C249.134338,229.778976 251.532669,229.778976 254.156998,229.778976 
	C254.156998,225.148224 253.859329,220.647552 254.293365,216.218613 
	C254.485626,214.256699 256.158234,212.439850 257.981781,210.237350 
M123.465469,170.026291 
	C121.023552,167.805176 118.581642,165.584061 116.139725,163.362946 
	C115.855736,163.581238 115.571739,163.799530 115.287743,164.017822 
	C117.923668,172.089828 120.559593,180.161835 123.417213,188.912720 
	C127.434875,186.401062 130.695801,184.362488 134.435471,182.024612 
	C130.595657,177.820633 127.270706,174.180359 123.465469,170.026291 
M267.750885,228.379105 
	C270.067078,229.117325 272.383240,229.855545 275.174194,230.745087 
	C275.174194,221.168198 275.174194,212.773697 275.174194,204.202957 
	C272.697571,204.202957 270.322449,204.202957 267.699402,204.202957 
	C267.699402,212.139008 267.699402,219.768829 267.750885,228.379105 
M281.082153,238.834976 
	C280.418365,238.824448 279.752380,238.773438 279.091187,238.809814 
	C273.634125,239.110077 273.350372,239.742142 273.157959,246.639343 
	C273.035828,251.016693 274.566071,253.107864 279.101349,253.141617 
	C285.236450,253.187241 285.492889,252.937912 284.366119,244.824020 
	C282.868378,244.923004 281.349670,245.023392 280.691650,245.066879 
	C281.287018,247.136108 281.773834,248.828064 282.260620,250.520004 
	C280.375671,250.504044 277.165131,251.073792 276.851349,250.363617 
	C275.862061,248.124695 275.504730,245.340118 275.856049,242.904221 
	C275.999908,241.906693 278.506042,240.967117 280.082764,240.549423 
	C281.320587,240.221527 282.781738,240.736633 284.143677,240.877228 
	C284.238403,240.481033 284.333160,240.084824 284.427917,239.688629 
	C283.563904,239.406937 282.699860,239.125244 281.082153,238.834976 
M310.244843,247.356659 
	C310.349213,249.221603 310.453583,251.086533 310.557983,252.951477 
	C311.035339,252.928009 311.512695,252.904526 311.990082,252.881058 
	C312.141663,249.914963 312.293243,246.948883 312.507690,242.752701 
	C315.348816,246.944107 317.499573,250.117081 320.138885,254.010773 
	C323.281311,248.689026 321.809021,244.194214 321.744080,239.774719 
	C321.265778,239.733597 320.787476,239.692459 320.309204,239.651321 
	C320.083801,242.393753 319.858398,245.136169 319.594513,248.346466 
	C316.730408,244.672318 314.285187,241.535507 311.839966,238.398712 
	C311.333557,238.669174 310.827179,238.939651 310.320801,239.210114 
	C310.320801,241.624435 310.320801,244.038757 310.244843,247.356659 
M256.381500,247.569336 
	C255.777100,249.268921 255.172714,250.968491 254.568314,252.668060 
	C254.875992,253.100479 255.183685,253.532898 255.491379,253.965317 
	C259.202942,245.904877 263.192444,248.143417 267.433167,253.419037 
	C266.911346,250.518661 266.356140,248.465607 265.419128,246.604782 
	C264.091461,243.968201 262.482300,241.473373 260.993439,238.917953 
	C259.567871,241.580917 258.142334,244.243881 256.381500,247.569336 
M335.400604,248.859161 
	C337.153503,250.248093 338.906433,251.637039 340.659363,253.025986 
	C339.872864,248.377319 338.418488,244.205139 336.633636,240.179489 
	C336.457275,239.781738 333.388519,239.881149 333.137695,240.427338 
	C331.321136,244.383469 329.884033,248.513840 327.883484,253.749207 
	C330.869354,251.574417 332.721924,250.225067 335.400604,248.859161 
M299.524261,250.822098 
	C295.167572,252.195572 293.745056,250.269775 294.003540,246.109741 
	C294.109711,244.401398 293.723816,242.662476 293.561798,240.937469 
	C292.844543,241.039780 292.127289,241.142105 291.410004,241.244415 
	C292.107513,244.956741 292.256775,248.934509 293.845215,252.215469 
	C294.306183,253.167633 300.906006,252.818817 301.230469,251.875656 
	C302.609222,247.867905 302.687714,243.412827 303.241058,239.121124 
	C302.531372,239.059036 301.821655,238.996948 301.111969,238.934860 
	C300.792908,242.668991 300.473846,246.403122 299.524261,250.822098 
M241.018448,245.570312 
	C241.018448,248.007050 241.018448,250.443802 241.018448,253.233597 
	C244.371765,253.000580 247.044937,252.814819 249.718109,252.629074 
	C249.703110,252.179016 249.688126,251.728958 249.673141,251.278900 
	C247.604187,251.069443 245.535233,250.859985 243.454483,250.649338 
	C243.258987,246.653000 243.070709,242.804306 242.882431,238.955612 
	C242.260986,238.976013 241.639526,238.996429 241.018082,239.016830 
	C241.018082,240.889496 241.018082,242.762146 241.018448,245.570312 
M269.570923,201.062103 
	C271.470062,201.062103 273.369171,201.062103 275.140320,201.062103 
	C275.140320,198.547333 275.140320,196.786758 275.140320,194.822113 
	C272.661560,194.822113 270.444214,194.822113 267.480347,194.822113 
	C267.889832,197.072281 268.245605,199.027359 269.570923,201.062103 
M279.883270,86.602470 
	C279.955475,86.602486 280.027649,86.602509 279.883270,86.602470 
z"/>
<path fill="#F4A515" opacity="1.000000" stroke="none" 
	d="
M205.893600,169.949097 
	C204.997482,170.764435 204.101364,171.579773 202.782562,172.809784 
	C199.437363,176.658279 196.514847,180.092133 193.592331,183.525986 
	C193.592331,183.525986 193.612686,183.605927 193.298264,183.731918 
	C192.054962,184.931213 191.126068,186.004501 190.197189,187.077805 
	C189.897278,187.277496 189.597366,187.477203 188.869308,188.024948 
	C187.121445,189.850449 186.015411,191.659286 184.410370,192.694229 
	C183.251160,193.441696 180.895859,193.872711 180.001755,193.204147 
	C177.324417,191.202164 175.102814,188.590729 173.013321,186.523849 
	C176.028336,183.270187 178.479782,180.624680 180.931244,177.979187 
	C181.212143,177.796295 181.493057,177.613419 182.120575,177.217636 
	C182.467163,177.004745 182.944687,176.973007 183.289261,176.942963 
	C184.020584,176.414322 184.407318,175.915710 184.859863,175.177460 
	C185.291534,174.629181 185.657364,174.320511 186.391678,174.009171 
	C188.089310,172.573807 189.418472,171.141113 190.747620,169.708420 
	C190.747620,169.708420 190.798187,169.837128 191.038986,169.772034 
	C191.479614,169.364182 191.679443,169.021408 191.997131,168.437714 
	C192.670807,167.764633 193.226578,167.332504 194.129196,166.900848 
	C194.968384,166.245316 195.460739,165.589325 195.975189,164.965439 
	C195.997299,164.997559 195.933472,164.952744 196.265732,164.932770 
	C197.048676,164.254913 197.499359,163.597031 197.973969,162.969742 
	C197.997879,163.000351 197.938538,162.949890 198.293060,162.934479 
	C201.064880,160.572968 203.482178,158.226852 205.942795,155.936768 
	C205.986130,155.992798 205.877823,155.901413 206.219101,155.897797 
	C207.007004,155.223541 207.453629,154.552917 207.945602,153.917084 
	C207.990936,153.951874 207.879761,153.925385 208.131790,153.852539 
	C208.576065,153.498703 208.768326,153.217712 208.979126,152.966873 
	C208.997681,152.997025 208.937225,152.960190 209.178986,152.869965 
	C209.601700,152.496414 209.782654,152.213104 209.976776,151.965088 
	C209.989944,152.000397 209.934555,151.949249 210.257507,151.944122 
	C210.964050,151.507202 211.347672,151.075424 211.706238,150.731628 
	C211.681198,150.819611 211.664139,150.637451 212.035522,150.710190 
	C212.837021,150.056473 213.267105,149.330002 213.697189,148.603531 
	C213.697189,148.603531 213.872879,148.724899 214.150421,148.772278 
	C215.233261,147.766190 216.038544,146.712723 216.946808,145.443939 
	C217.470932,145.049118 217.892090,144.869629 218.667099,144.682617 
	C219.338181,144.105209 219.655411,143.535309 219.985992,142.983093 
	C219.999329,143.000763 219.964447,142.972702 220.292740,142.951080 
	C221.076385,142.281143 221.531738,141.632843 221.993561,140.992264 
	C222.000000,141.000000 221.985016,140.986832 222.301849,140.972748 
	C222.999496,140.533554 223.380325,140.108459 223.783051,139.741028 
	C223.804977,139.798706 223.690247,139.753265 223.991394,139.716949 
	C224.544800,139.163437 224.797043,138.646225 225.153412,137.886688 
	C225.700485,137.380661 226.143433,137.116989 226.905090,136.781021 
	C227.435837,136.347580 227.647873,135.986420 227.846405,135.427979 
	C227.832886,135.230682 227.706100,134.856079 227.706100,134.856079 
	C228.732803,134.046066 229.759521,133.236053 231.376572,132.222198 
	C232.664703,131.176743 233.362503,130.335114 234.060303,129.493500 
	C234.173019,129.363708 234.285721,129.233917 235.003113,129.021790 
	C238.344193,126.219139 241.080627,123.498817 243.817062,120.778503 
	C243.817062,120.778503 243.950882,120.938698 244.228653,120.908073 
	C245.972733,119.212936 247.439041,117.548431 248.905350,115.883919 
	C248.905350,115.883919 248.991379,115.986137 249.277740,115.950340 
	C250.572769,115.507576 251.581451,115.100609 252.876007,114.578308 
	C252.970383,115.630936 253.041809,116.427628 252.968796,117.521027 
	C247.594238,123.897842 242.364120,129.977966 237.134003,136.058075 
	C237.134003,136.058075 237.026688,136.052582 236.805130,136.154526 
	C236.296295,136.435379 236.142548,136.693787 236.122360,137.031677 
	C235.095276,138.055038 234.068207,139.078400 232.638397,140.553513 
	C223.454971,150.653198 214.674286,160.301132 205.893600,169.949097 
z"/>
<path fill="#21110B" opacity="1.000000" stroke="none" 
	d="
M153.228790,230.116119 
	C147.670303,230.145294 142.531952,230.145294 137.055969,230.145294 
	C137.055969,227.317642 137.055969,225.247284 137.055969,223.166016 
	C141.470566,223.461182 145.761337,223.864838 150.060410,223.995636 
	C153.070953,224.087234 155.830704,223.472931 155.907654,219.532227 
	C155.986160,215.512390 153.309158,215.038345 150.213318,215.077194 
	C148.880936,215.093918 147.547668,215.102493 146.215668,215.074005 
	C139.115753,214.922195 136.064758,212.169174 135.896484,205.782059 
	C135.703735,198.466232 138.359085,195.337219 145.730896,194.940475 
	C151.189484,194.646683 156.676590,194.882706 162.476868,194.882706 
	C162.476868,197.129852 162.476868,199.029999 162.476868,201.284607 
	C158.300903,201.100632 154.194275,200.733536 150.095596,200.807404 
	C147.547485,200.853317 144.400131,200.732727 144.388870,204.721832 
	C144.377838,208.629501 147.313766,208.536606 149.986954,208.728500 
	C150.815186,208.787933 151.652008,208.717834 152.484726,208.725571 
	C161.360718,208.808060 163.839111,210.593552 164.270157,217.209442 
	C164.839722,225.951096 162.504486,228.782410 153.228790,230.116119 
z"/>
<path fill="#F4A71A" opacity="1.000000" stroke="none" 
	d="
M139.788513,179.089630 
	C138.651382,160.685608 137.823059,142.606415 136.923843,124.530754 
	C136.726624,120.566330 136.277115,116.614464 135.943771,112.656822 
	C136.732437,112.541710 137.521118,112.426598 138.309799,112.311485 
	C142.705139,134.156525 147.100494,156.001587 151.692673,178.824860 
	C147.466705,179.039734 143.769287,179.227722 139.788513,179.089630 
z"/>
<path fill="#24150F" opacity="1.000000" stroke="none" 
	d="
M239.802673,217.079987 
	C239.803146,221.523819 239.803146,225.485214 239.803146,230.132248 
	C233.052292,230.132248 226.717972,230.273239 220.393204,230.088165 
	C215.223831,229.936905 215.059860,226.062744 215.064453,222.204498 
	C215.069275,218.155441 215.334549,214.217361 220.677170,213.925262 
	C224.267975,213.728943 227.878220,213.887894 231.504700,213.887894 
	C231.150970,208.392868 231.150970,208.392868 217.395584,208.741959 
	C217.395584,207.187592 217.395584,205.633286 217.395584,203.497131 
	C222.075424,203.497131 226.737885,203.174240 231.337952,203.572189 
	C238.383591,204.181717 239.768112,205.982254 239.808289,213.099380 
	C239.814865,214.265396 239.804642,215.431503 239.802673,217.079987 
M231.461731,223.962219 
	C231.595947,222.105469 231.730179,220.248718 231.863022,218.411133 
	C222.738083,217.699799 222.147568,218.183029 223.821701,225.157410 
	C226.106735,224.989441 228.496384,224.813797 231.461731,223.962219 
z"/>
<path fill="#24150F" opacity="1.000000" stroke="none" 
	d="
M305.993652,212.313446 
	C305.994537,218.399521 305.994537,224.025665 305.994537,230.135941 
	C299.396729,230.135941 293.219391,230.158722 287.042328,230.128876 
	C281.895447,230.104019 281.294830,226.587616 281.350769,222.597870 
	C281.408234,218.499939 281.272614,214.200348 287.023438,213.922470 
	C290.491882,213.754868 293.975067,213.891632 297.418152,213.891632 
	C297.901398,207.836487 297.389832,207.656143 283.752228,208.938538 
	C283.578033,207.433884 283.401947,205.912872 283.136688,203.621353 
	C288.496735,203.621353 293.415436,203.535645 298.329834,203.644638 
	C303.597931,203.761459 306.290161,206.455292 305.993652,212.313446 
M290.936584,224.970551 
	C298.235809,225.454971 298.634735,225.070145 297.591309,218.550980 
	C289.299652,217.416733 287.886841,218.580917 290.936584,224.970551 
z"/>
<path fill="#22120D" opacity="1.000000" stroke="none" 
	d="
M170.751129,206.959320 
	C175.833893,202.704590 186.495621,201.882492 191.659210,205.018539 
	C196.923203,208.215546 197.260956,225.126343 192.128937,228.538101 
	C188.536880,230.926132 175.666977,231.023102 172.386780,228.384964 
	C171.069260,227.325333 169.589523,225.452286 169.590210,223.950119 
	C169.592773,218.401031 170.183014,212.852203 170.751129,206.959320 
M177.924774,209.693054 
	C177.599167,213.100586 177.282806,216.509033 176.945496,219.915405 
	C176.558136,223.827438 178.603912,225.268219 182.227051,225.305710 
	C185.817871,225.342865 187.921432,223.953857 187.782654,220.076843 
	C187.729294,218.586716 187.746979,217.093719 187.746613,215.602036 
	C187.744827,208.347839 185.642792,206.864594 177.924774,209.693054 
z"/>
<path fill="#EFAB2D" opacity="1.000000" stroke="none" 
	d="
M65.609543,166.575241 
	C71.094505,169.025024 76.602592,171.424576 82.059654,173.934998 
	C93.682671,179.282043 105.258667,184.731689 116.899918,190.038406 
	C120.124069,191.508133 119.978081,193.571396 118.376984,196.020340 
	C117.021828,198.093109 115.505386,200.060455 113.692139,202.587585 
	C106.515182,197.875259 99.357803,193.128922 92.152359,188.456711 
	C83.285400,182.707092 74.378365,177.019272 65.026909,170.890991 
	C63.105114,169.584732 61.645061,168.692230 60.185005,167.799713 
	C60.185009,167.799713 60.089447,167.801163 60.035648,167.576080 
	C59.652653,167.236023 59.323456,167.121048 58.994255,167.006073 
	C58.994255,167.006088 58.769100,166.787079 58.405869,166.500046 
	C57.121376,165.340622 56.200111,164.468231 55.278851,163.595856 
	C55.512794,163.252945 55.746738,162.910034 55.980682,162.567139 
	C59.190300,163.903168 62.399921,165.239212 65.609543,166.575241 
M98.774017,189.031204 
	C99.914795,189.081116 101.055573,189.131012 102.137093,189.178329 
	C102.313255,196.157547 109.655518,194.904388 111.924034,199.454163 
	C114.677689,196.640518 118.552269,194.234619 114.347328,191.430771 
	C109.531860,188.219788 103.799782,186.392059 98.491814,183.908096 
	C94.786873,182.174271 91.192284,180.182373 87.408913,178.650223 
	C86.053535,178.101364 84.289268,178.562195 82.711624,178.562195 
	C83.685104,179.914795 84.746948,180.282181 85.662903,180.874985 
	C89.809441,183.558548 93.914772,186.305801 98.774017,189.031204 
z"/>
<path fill="#F1A619" opacity="1.000000" stroke="none" 
	d="
M110.984741,212.985138 
	C110.250023,220.170425 110.237526,220.227371 103.240074,218.691467 
	C88.513275,215.459000 73.800949,212.160599 59.031029,208.614975 
	C75.362549,208.284637 91.745712,208.214874 108.128906,208.207916 
	C109.073997,208.207504 110.019310,208.717987 110.964516,208.990707 
	C110.988625,209.427887 111.012733,209.865082 110.964417,210.961853 
	C110.922905,212.076019 110.953819,212.530579 110.984741,212.985138 
z"/>
<path fill="#1D0E06" opacity="1.000000" stroke="none" 
	d="
M209.375244,201.120163 
	C209.366928,210.915955 209.366928,220.229874 209.366928,229.776840 
	C206.772476,229.776840 204.499771,229.776840 201.967560,229.776840 
	C201.967560,217.355286 201.967560,204.951294 201.967560,192.390045 
	C204.332611,192.390045 206.470459,192.390045 209.383560,192.390045 
	C209.383560,195.145996 209.383560,197.892151 209.375244,201.120163 
z"/>
<path fill="#FAA202" opacity="1.000000" stroke="none" 
	d="
M112.564758,247.331116 
	C112.564751,247.331116 112.613396,247.083618 113.111755,247.038223 
	C115.381035,246.326981 117.151955,245.661133 117.877480,245.388336 
	C120.617599,246.716476 122.505371,247.631500 124.393143,248.546509 
	C124.393143,248.546509 124.389397,248.630173 124.264221,248.986786 
	C122.866592,250.521774 121.412445,251.561340 120.374947,252.919250 
	C119.419189,254.170135 118.911140,255.763092 118.203285,257.141602 
	C118.200691,257.077820 118.166359,257.200684 117.822540,257.164490 
	C117.018051,257.788025 116.557381,258.447723 116.049194,259.053925 
	C116.001671,259.000397 116.103981,259.100708 115.730026,259.063843 
	C114.552696,259.992798 113.749321,260.958618 112.970306,261.960571 
	C112.994675,261.996735 112.923798,261.945953 112.549217,261.953949 
	C109.397980,264.256683 106.621323,266.551453 103.444000,268.892761 
	C99.840652,269.132690 91.065811,275.301880 90.231071,278.118011 
	C90.029686,278.797424 90.528107,279.684296 90.704720,280.475769 
	C90.704720,280.475769 90.554306,280.581818 90.204620,280.517792 
	C89.699585,280.756927 89.544235,281.060089 89.388885,281.363251 
	C89.388885,281.363251 89.088081,281.298492 88.824249,281.243286 
	C85.063698,281.016907 83.780396,279.864868 86.601181,276.834503 
	C88.599236,274.688019 90.690567,272.611237 92.510895,270.321014 
	C94.490158,267.830811 96.204094,265.129730 98.217239,262.340149 
	C98.553864,262.082245 98.706985,262.004791 99.203583,261.922943 
	C99.992630,261.244507 100.438210,260.570496 100.919708,259.918335 
	C100.955635,259.940155 100.891785,259.907104 101.147568,259.842957 
	C101.571686,259.484711 101.740021,259.190643 101.891556,258.914062 
	C101.874756,258.931549 101.881485,258.881775 102.254013,258.895386 
	C103.238808,257.794220 103.851067,256.679443 104.463333,255.564667 
	C104.463326,255.564667 104.541992,255.733749 104.867393,255.670410 
	C105.460152,255.063004 105.727509,254.518936 105.994873,253.974869 
	C105.994873,253.974869 106.088814,253.740723 106.585205,253.718170 
	C108.530777,251.967865 109.979950,250.240128 111.429138,248.512390 
	C111.429138,248.512390 111.511009,248.551468 111.863190,248.524017 
	C112.331833,248.108078 112.448296,247.719589 112.564758,247.331116 
z"/>
<path fill="#24150F" opacity="1.000000" stroke="none" 
	d="
M257.570312,210.397247 
	C256.158234,212.439850 254.485626,214.256699 254.293365,216.218613 
	C253.859329,220.647552 254.156998,225.148224 254.156998,229.778976 
	C251.532669,229.778976 249.134338,229.778976 246.521698,229.778976 
	C246.521698,221.143585 246.521698,212.757080 246.521698,204.387512 
	C252.100815,204.113571 257.569214,203.845062 263.237579,203.566727 
	C263.237579,205.510803 263.237579,207.457001 263.237579,209.751541 
	C261.476532,209.914322 259.729156,210.075836 257.570312,210.397247 
z"/>
<path fill="#F4A515" opacity="1.000000" stroke="none" 
	d="
M171.347610,170.929108 
	C171.165268,171.397079 170.982941,171.865051 170.291168,172.778900 
	C169.256592,175.643799 168.731415,178.062790 168.243988,180.630310 
	C168.281708,180.778839 168.093079,181.020401 167.621552,181.012878 
	C165.568497,181.105377 163.986969,181.205383 162.139008,181.382599 
	C161.521637,181.547775 161.170715,181.635727 160.819794,181.723694 
	C160.819794,181.723694 160.890793,181.434494 160.733337,180.958710 
	C159.985352,178.839554 159.394821,177.196198 158.789673,175.402832 
	C158.775055,175.252823 158.950562,175.007736 159.209595,174.839386 
	C159.629730,174.094040 159.790848,173.517075 159.971909,172.971741 
	C159.991852,173.003403 159.932465,172.957581 160.295837,172.913696 
	C161.109222,171.588379 161.559204,170.306931 161.983459,168.767456 
	C161.907913,168.343842 161.858124,168.178284 161.808350,168.012726 
	C161.808350,168.012726 162.058548,167.647461 162.354248,167.224335 
	C163.152328,165.557434 163.654694,164.313660 164.157074,163.069885 
	C164.445297,162.614548 164.733521,162.159225 165.346680,161.237488 
	C167.720200,156.827591 169.768768,152.884094 172.115143,148.792130 
	C172.574371,148.022980 172.735794,147.402298 172.934418,146.526306 
	C173.247726,145.849075 173.523804,145.427155 174.065857,144.892212 
	C174.472488,144.438919 174.613159,144.098648 174.750656,143.815430 
	C174.747467,143.872467 174.663956,143.794479 175.002563,143.690765 
	C175.541458,142.704147 175.741760,141.821243 175.968979,140.966934 
	C175.995895,140.995544 175.922714,140.966965 176.195862,140.814941 
	C176.618576,140.077942 176.768143,139.492966 176.915558,138.903656 
	C176.913437,138.899323 176.900421,138.885437 177.191711,139.137695 
	C177.687088,140.654922 177.891205,141.919876 178.097382,143.403259 
	C178.099426,143.621658 177.905579,144.013123 177.652176,144.224579 
	C177.267120,145.294647 177.135483,146.153275 177.016571,147.269073 
	C176.976730,147.689667 176.924164,147.853088 176.630585,148.231583 
	C176.255005,149.287903 176.120392,150.129135 175.971252,151.246918 
	C175.887466,151.694565 175.818176,151.865677 175.532959,152.246536 
	C175.246475,153.045547 175.175873,153.634827 175.122269,154.424591 
	C175.139267,154.625076 174.986115,154.997208 174.719574,155.226654 
	C174.336685,156.375916 174.220322,157.295731 174.095703,158.428253 
	C174.087433,158.640976 173.883270,159.014603 173.639374,159.228928 
	C173.316422,160.076904 173.237366,160.710571 173.178650,161.512726 
	C173.199005,161.681229 173.045517,161.983994 172.754456,162.234253 
	C172.389557,163.496338 172.315735,164.508194 172.300873,165.642288 
	C172.359848,165.764542 172.201797,165.985245 171.894257,166.173752 
	C171.433640,167.281036 171.280579,168.199814 171.101288,169.062439 
	C171.075043,169.006302 171.172195,169.083267 170.920639,169.176178 
	C170.721390,169.856567 170.773697,170.444031 170.960815,171.028229 
	C171.095596,171.024979 171.347610,170.929108 171.347610,170.929108 
z"/>
<path fill="#EFAB2D" opacity="1.000000" stroke="none" 
	d="
M98.033722,262.520599 
	C96.204094,265.129730 94.490158,267.830811 92.510895,270.321014 
	C90.690567,272.611237 88.599236,274.688019 86.601181,276.834503 
	C83.780396,279.864868 85.063698,281.016907 88.967773,281.298706 
	C89.292717,281.735718 89.210320,282.062134 88.747925,282.664886 
	C87.973465,283.329559 87.578995,283.717834 87.184525,284.106110 
	C87.184525,284.106110 87.077118,284.096954 86.846054,284.190430 
	C86.319603,284.442291 86.137817,284.685547 86.069633,285.013733 
	C81.817505,288.449524 77.565376,291.885315 72.867805,295.679199 
	C72.209343,296.328308 71.996323,296.619324 71.783310,296.910339 
	C70.611633,297.744659 69.439957,298.578979 67.865242,299.749451 
	C67.266403,300.373444 67.070602,300.661255 66.874802,300.949097 
	C66.559395,300.989624 66.304565,301.135773 65.693359,301.621704 
	C64.860291,301.974823 64.444199,302.093811 63.784370,302.232544 
	C63.213497,302.438110 63.082527,302.716309 63.147720,303.086884 
	C63.147720,303.086884 63.060966,303.075287 62.701004,303.081177 
	C61.852535,302.371948 61.364033,301.656769 60.875530,300.941650 
	C61.160805,300.736359 61.446079,300.531067 62.050674,300.024139 
	C62.641300,299.504395 62.712986,299.233398 62.585060,298.909546 
	C62.585060,298.909546 62.800293,298.789734 63.057983,298.703369 
	C63.626713,298.503357 63.754440,298.283264 63.698853,297.956726 
	C64.403603,297.223938 65.108345,296.491150 66.223961,295.397034 
	C66.830704,294.725311 67.026581,294.414948 67.222458,294.104584 
	C67.515160,294.014191 67.750587,293.844421 68.310074,293.266296 
	C69.481735,291.977234 70.272057,291.017090 71.062378,290.056946 
	C71.062378,290.056946 71.011490,289.995667 71.282944,289.964081 
	C71.729858,289.640808 71.905319,289.349152 72.080780,289.057465 
	C72.080772,289.057465 71.994568,289.015961 72.335236,288.920837 
	C73.892593,287.360962 75.109291,285.896210 76.325989,284.431427 
	C76.325989,284.431427 76.351822,284.353516 76.685532,284.231720 
	C78.438553,282.459747 79.857872,280.809570 81.277191,279.159393 
	C86.489677,273.756866 91.702148,268.354340 97.280701,262.683105 
	C97.646782,262.414398 98.033722,262.520599 98.033722,262.520599 
z"/>
<path fill="#F4A71A" opacity="1.000000" stroke="none" 
	d="
M103.031586,230.448151 
	C103.155838,230.323944 103.280090,230.199753 103.975952,230.018600 
	C105.019203,229.607452 105.490860,229.253281 105.962509,228.899109 
	C105.962509,228.899109 105.961243,228.982864 106.274193,228.983322 
	C107.682129,228.289032 108.777107,227.594284 109.872086,226.899521 
	C110.689278,226.973160 111.822708,226.745361 112.248512,227.192062 
	C112.865448,227.839325 112.975327,228.972717 113.293495,229.901489 
	C115.673813,236.850143 115.672424,236.847046 108.270424,238.580185 
	C104.608635,239.437576 100.950302,240.309738 96.529488,241.123062 
	C94.838814,241.504776 93.909065,241.938660 92.979317,242.372543 
	C92.047310,242.658157 91.115303,242.943771 89.390823,243.151062 
	C86.399139,243.390640 84.199921,243.708542 81.483879,244.101151 
	C82.274033,242.866745 82.610435,242.341217 82.946838,241.815674 
	C83.355026,241.517700 83.763222,241.219742 84.811790,240.915466 
	C89.619019,238.375900 93.785881,235.842636 97.952736,233.309372 
	C97.952736,233.309372 98.343651,233.006027 98.945038,232.994507 
	C100.708153,232.138062 101.869873,231.293106 103.031586,230.448151 
z"/>
<path fill="#F4A71A" opacity="1.000000" stroke="none" 
	d="
M123.705612,170.283188 
	C127.270706,174.180359 130.595657,177.820633 134.435471,182.024612 
	C130.695801,184.362488 127.434875,186.401062 123.417213,188.912720 
	C120.559593,180.161835 117.923668,172.089828 115.287743,164.017822 
	C115.571739,163.799530 115.855736,163.581238 116.139725,163.362946 
	C118.581642,165.584061 121.023552,167.805176 123.705612,170.283188 
z"/>
<path fill="#1D0E06" opacity="1.000000" stroke="none" 
	d="
M267.725159,227.888870 
	C267.699402,219.768829 267.699402,212.139008 267.699402,204.202957 
	C270.322449,204.202957 272.697571,204.202957 275.174194,204.202957 
	C275.174194,212.773697 275.174194,221.168198 275.174194,230.745087 
	C272.383240,229.855545 270.067078,229.117325 267.725159,227.888870 
z"/>
<path fill="#FCF8E0" opacity="1.000000" stroke="none" 
	d="
M168.093079,181.020401 
	C168.093079,181.020401 168.281708,180.778839 168.494568,180.352234 
	C169.414444,177.939545 170.121429,175.953476 170.828430,173.967407 
	C171.169510,175.418686 171.510574,176.869965 172.157730,179.623596 
	C174.607422,179.121994 177.394440,178.551315 180.556335,177.979919 
	C178.479782,180.624680 176.028336,183.270187 173.013321,186.523849 
	C175.102814,188.590729 177.324417,191.202164 180.001755,193.204147 
	C180.895859,193.872711 183.251160,193.441696 184.410370,192.694229 
	C186.015411,191.659286 187.121445,189.850449 188.757599,188.276398 
	C190.702438,193.767899 184.708694,194.977356 183.402924,200.496506 
	C178.781876,195.581818 174.584381,192.220566 171.898224,187.916183 
	C169.699585,184.392975 167.482895,184.895859 164.168457,185.393250 
	C165.082687,187.863358 165.901047,190.074432 166.773911,192.432800 
	C163.486923,191.992920 161.455597,188.329178 160.869995,182.087280 
	C161.170715,181.635727 161.521637,181.547775 162.389374,181.671295 
	C164.760620,182.350021 166.978195,185.001358 168.093079,181.020401 
z"/>
<path fill="#EFAB2D" opacity="1.000000" stroke="none" 
	d="
M253.113251,117.224319 
	C253.041809,116.427628 252.970383,115.630936 252.876007,114.578308 
	C251.581451,115.100609 250.572769,115.507576 249.223724,115.911041 
	C254.739105,110.203247 260.550781,104.452721 266.467896,98.812767 
	C269.782867,95.653046 273.272369,92.676437 276.817566,89.293198 
	C276.951843,88.969063 276.922302,88.963470 276.922302,88.963470 
	C272.507294,95.016594 268.092285,101.069725 263.221161,107.552345 
	C260.934540,110.005852 259.104034,112.029877 257.273529,114.053894 
	C257.273529,114.053902 256.993683,114.356422 256.612122,114.639526 
	C255.191437,115.689865 254.152344,116.457092 253.113251,117.224319 
z"/>
<path fill="#FCF8E0" opacity="1.000000" stroke="none" 
	d="
M252.968781,117.521027 
	C254.152344,116.457092 255.191437,115.689865 256.556061,114.837830 
	C256.472839,117.373276 254.170639,119.803543 256.599976,122.845413 
	C256.919556,123.245560 253.578217,128.079498 251.393829,128.600143 
	C248.435287,129.305298 246.633240,130.440536 244.626892,132.574646 
	C242.996567,134.308777 240.182144,134.929703 237.513428,136.051193 
	C242.364120,129.977966 247.594238,123.897842 252.968781,117.521027 
z"/>
<path fill="#FCF8E0" opacity="1.000000" stroke="none" 
	d="
M206.268021,169.972015 
	C214.674286,160.301132 223.454971,150.653198 232.542328,140.854248 
	C233.389679,141.851776 233.930328,143.000320 234.472229,144.149261 
	C226.191254,149.517395 220.416992,156.972290 215.445267,165.876205 
	C213.005356,167.017807 209.823898,168.506363 206.268021,169.972015 
z"/>
<path fill="#342B2A" opacity="1.000000" stroke="none" 
	d="
M281.458984,238.839264 
	C282.699860,239.125244 283.563904,239.406937 284.427917,239.688629 
	C284.333160,240.084824 284.238403,240.481033 284.143677,240.877228 
	C282.781738,240.736633 281.320587,240.221527 280.082764,240.549423 
	C278.506042,240.967117 275.999908,241.906693 275.856049,242.904221 
	C275.504730,245.340118 275.862061,248.124695 276.851349,250.363617 
	C277.165131,251.073792 280.375671,250.504044 282.260620,250.520004 
	C281.773834,248.828064 281.287018,247.136108 280.691650,245.066879 
	C281.349670,245.023392 282.868378,244.923004 284.366119,244.824020 
	C285.492889,252.937912 285.236450,253.187241 279.101349,253.141617 
	C274.566071,253.107864 273.035828,251.016693 273.157959,246.639343 
	C273.350372,239.742142 273.634125,239.110077 279.091187,238.809814 
	C279.752380,238.773438 280.418365,238.824448 281.458984,238.839264 
z"/>
<path fill="#342B2A" opacity="1.000000" stroke="none" 
	d="
M310.282837,246.904877 
	C310.320801,244.038757 310.320801,241.624435 310.320801,239.210114 
	C310.827179,238.939651 311.333557,238.669174 311.839966,238.398712 
	C314.285187,241.535507 316.730408,244.672318 319.594513,248.346466 
	C319.858398,245.136169 320.083801,242.393753 320.309204,239.651321 
	C320.787476,239.692459 321.265778,239.733597 321.744080,239.774719 
	C321.809021,244.194214 323.281311,248.689026 320.138885,254.010773 
	C317.499573,250.117081 315.348816,246.944107 312.507690,242.752701 
	C312.293243,246.948883 312.141663,249.914963 311.990082,252.881058 
	C311.512695,252.904526 311.035339,252.928009 310.557983,252.951477 
	C310.453583,251.086533 310.349213,249.221603 310.282837,246.904877 
z"/>
<path fill="#FCF8E0" opacity="1.000000" stroke="none" 
	d="
M65.792053,166.218216 
	C62.399921,165.239212 59.190300,163.903168 55.980682,162.567139 
	C55.746738,162.910034 55.512794,163.252945 55.278851,163.595856 
	C56.200111,164.468231 57.121376,165.340622 58.248970,166.493042 
	C56.299561,167.114258 54.143814,167.455444 51.988068,167.796646 
	C51.873283,167.478775 51.758503,167.160919 51.643719,166.843048 
	C52.329010,166.194122 53.014301,165.545181 54.395100,164.237640 
	C52.194241,164.353180 50.955273,164.418228 50.250999,164.455200 
	C48.550335,162.185898 47.038803,160.168961 45.335381,157.895966 
	C48.234703,155.858673 50.619473,155.422256 53.914856,158.139252 
	C56.703609,160.438583 60.491051,161.679474 64.010750,162.876480 
	C65.834358,163.496674 67.413429,163.438324 65.792053,166.218216 
z"/>
<path fill="#342B2A" opacity="1.000000" stroke="none" 
	d="
M256.549133,247.238098 
	C258.142334,244.243881 259.567871,241.580917 260.993439,238.917953 
	C262.482300,241.473373 264.091461,243.968201 265.419128,246.604782 
	C266.356140,248.465607 266.911346,250.518661 267.433167,253.419037 
	C263.192444,248.143417 259.202942,245.904877 255.491379,253.965317 
	C255.183685,253.532898 254.875992,253.100479 254.568314,252.668060 
	C255.172714,250.968491 255.777100,249.268921 256.549133,247.238098 
z"/>
<path fill="#342B2A" opacity="1.000000" stroke="none" 
	d="
M334.987549,248.867447 
	C332.721924,250.225067 330.869354,251.574417 327.883484,253.749207 
	C329.884033,248.513840 331.321136,244.383469 333.137695,240.427338 
	C333.388519,239.881149 336.457275,239.781738 336.633636,240.179489 
	C338.418488,244.205139 339.872864,248.377319 340.659363,253.025986 
	C338.906433,251.637039 337.153503,250.248093 334.987549,248.867447 
z"/>
<path fill="#FCF8E0" opacity="1.000000" stroke="none" 
	d="
M176.871582,148.016510 
	C176.924164,147.853088 176.976730,147.689667 177.217926,147.016998 
	C177.572906,145.676224 177.739243,144.844666 177.905579,144.013123 
	C177.905579,144.013123 178.099426,143.621658 178.354889,143.106049 
	C178.385254,140.644638 181.114914,137.853683 176.963562,136.958405 
	C176.911209,136.900879 176.811768,136.781281 176.811768,136.781281 
	C178.194077,134.150330 179.451187,131.437759 181.066666,128.958755 
	C181.381577,128.475494 183.089157,128.899796 184.154373,128.905502 
	C184.090332,129.783203 184.040207,130.662201 183.959717,131.538391 
	C183.700058,134.365601 183.429214,137.191788 183.126358,140.403519 
	C182.485031,140.284195 181.384766,140.079498 179.480530,139.725220 
	C182.039490,145.414551 181.318756,150.139008 176.417084,153.968262 
	C176.006439,154.006775 175.845535,153.860992 175.837891,153.554810 
	C175.803116,152.844666 175.776001,152.440735 175.748871,152.036789 
	C175.818176,151.865677 175.887466,151.694565 176.217865,151.034317 
	C176.609863,149.702286 176.740723,148.859406 176.871582,148.016510 
z"/>
<path fill="#FBDA8B" opacity="1.000000" stroke="none" 
	d="
M111.202759,208.775024 
	C110.019310,208.717987 109.073997,208.207504 108.128906,208.207916 
	C91.745712,208.214874 75.362549,208.284637 58.660172,208.541397 
	C56.928268,208.742111 55.515568,208.742111 54.102867,208.742111 
	C54.068024,208.279099 54.033180,207.816101 53.998337,207.353088 
	C57.575912,206.973801 61.156101,206.252441 64.730568,206.279739 
	C75.194542,206.359650 85.655777,206.759155 96.119049,206.989059 
	C100.557365,207.086578 105.000328,207.012604 109.435417,207.174484 
	C110.119881,207.199463 110.773247,208.076401 111.202759,208.775024 
z"/>
<path fill="#FEF6CE" opacity="1.000000" stroke="none" 
	d="
M60.489288,300.953979 
	C61.364033,301.656769 61.852535,302.371948 62.713879,303.123016 
	C62.810593,303.919312 62.534470,304.679688 61.859425,305.820251 
	C60.637825,307.098175 59.815144,307.995972 58.992462,308.893738 
	C57.538517,310.110809 56.185642,311.484497 54.604572,312.504547 
	C52.711067,313.726074 50.622669,314.645538 47.828899,316.109741 
	C50.078663,311.368744 51.778503,307.786621 53.478340,304.204468 
	C53.158638,304.035919 52.838936,303.867340 52.519234,303.698792 
	C55.047173,302.787994 57.575108,301.877167 60.489288,300.953979 
z"/>
<path fill="#FCF8E0" opacity="1.000000" stroke="none" 
	d="
M171.817352,148.940613 
	C169.768768,152.884094 167.720200,156.827591 165.372650,160.959167 
	C164.073547,156.318695 164.255432,151.926834 169.471695,149.486420 
	C167.837708,145.856262 171.234161,139.529419 176.454330,136.862350 
	C176.811768,136.781281 176.911209,136.900879 176.939499,137.270477 
	C176.945328,138.055191 176.922882,138.470322 176.900421,138.885437 
	C176.900421,138.885437 176.913437,138.899323 176.667755,139.078369 
	C176.255600,139.827255 176.089157,140.397110 175.922699,140.966965 
	C175.922714,140.966965 175.995895,140.995544 175.691620,141.149078 
	C175.146210,142.133240 174.905075,142.963852 174.663956,143.794479 
	C174.663956,143.794479 174.747467,143.872467 174.494293,143.929016 
	C174.094040,144.325470 173.946960,144.665344 173.799881,145.005234 
	C173.523804,145.427155 173.247726,145.849075 172.687134,146.721954 
	C172.207520,147.762161 172.012436,148.351379 171.817352,148.940613 
z"/>
<path fill="#342B2A" opacity="1.000000" stroke="none" 
	d="
M299.839539,250.479675 
	C300.473846,246.403122 300.792908,242.668991 301.111969,238.934860 
	C301.821655,238.996948 302.531372,239.059036 303.241058,239.121124 
	C302.687714,243.412827 302.609222,247.867905 301.230469,251.875656 
	C300.906006,252.818817 294.306183,253.167633 293.845215,252.215469 
	C292.256775,248.934509 292.107513,244.956741 291.410004,241.244415 
	C292.127289,241.142105 292.844543,241.039780 293.561798,240.937469 
	C293.723816,242.662476 294.109711,244.401398 294.003540,246.109741 
	C293.745056,250.269775 295.167572,252.195572 299.839539,250.479675 
z"/>
<path fill="#FCF8E0" opacity="1.000000" stroke="none" 
	d="
M158.950562,175.007736 
	C158.950562,175.007736 158.775055,175.252823 158.541626,175.643524 
	C158.280914,177.642807 158.253616,179.251373 158.226318,180.859940 
	C155.693466,186.285629 150.262543,186.723831 145.631561,189.114456 
	C145.444824,188.106186 145.331055,187.853745 145.396317,187.792740 
	C150.744064,182.791763 155.689835,177.455627 159.766174,171.398560 
	C160.049744,172.117599 159.991104,172.537598 159.932465,172.957581 
	C159.932465,172.957581 159.991852,173.003403 159.718353,173.142578 
	C159.280090,173.857086 159.115326,174.432404 158.950562,175.007736 
z"/>
<path fill="#FCF8E0" opacity="1.000000" stroke="none" 
	d="
M198.813400,160.781281 
	C198.294250,159.697815 197.653381,158.653503 197.288666,157.520340 
	C196.888824,156.278015 196.743729,154.953690 196.974319,153.278976 
	C200.108200,156.449356 202.137512,157.014084 204.878189,153.059921 
	C206.456360,150.782974 209.845459,149.761200 212.515961,148.580963 
	C212.296387,149.537476 211.980270,150.087463 211.664139,150.637451 
	C211.664139,150.637451 211.681198,150.819611 211.414551,150.773346 
	C210.743454,151.134491 210.339005,151.541870 209.934555,151.949249 
	C209.934555,151.949249 209.989944,152.000397 209.722900,152.036148 
	C209.282990,152.367996 209.110107,152.664093 208.937225,152.960205 
	C208.937225,152.960190 208.997681,152.997025 208.724152,153.040985 
	C208.260330,153.365112 208.070053,153.645248 207.879761,153.925385 
	C207.879761,153.925385 207.990936,153.951874 207.662048,154.013153 
	C206.848038,154.683411 206.362930,155.292404 205.877808,155.901413 
	C205.877823,155.901413 205.986130,155.992798 205.629929,156.047928 
	C203.193451,157.746674 201.113174,159.390274 198.976624,160.971939 
	C198.920364,160.910004 198.813400,160.781281 198.813400,160.781281 
z"/>
<path fill="#342B2A" opacity="1.000000" stroke="none" 
	d="
M241.018265,245.102570 
	C241.018082,242.762146 241.018082,240.889496 241.018082,239.016830 
	C241.639526,238.996429 242.260986,238.976013 242.882431,238.955612 
	C243.070709,242.804306 243.258987,246.653000 243.454483,250.649338 
	C245.535233,250.859985 247.604187,251.069443 249.673141,251.278900 
	C249.688126,251.728958 249.703110,252.179016 249.718109,252.629074 
	C247.044937,252.814819 244.371765,253.000580 241.018448,253.233597 
	C241.018448,250.443802 241.018448,248.007050 241.018265,245.102570 
z"/>
<path fill="#FEF6CE" opacity="1.000000" stroke="none" 
	d="
M126.375038,250.951202 
	C126.730553,251.795517 127.570404,253.234604 127.370773,253.397186 
	C122.365227,257.473297 117.268921,261.439606 112.129555,265.347595 
	C111.526360,265.806244 110.579834,265.813416 109.525040,265.720581 
	C110.479675,264.256195 111.701744,263.101074 112.923798,261.945953 
	C112.923798,261.945953 112.994675,261.996735 113.273026,261.875977 
	C114.402245,260.870361 115.253120,259.985535 116.103989,259.100708 
	C116.103981,259.100708 116.001671,259.000397 116.337074,258.982208 
	C117.170441,258.376251 117.668404,257.788483 118.166367,257.200684 
	C118.166359,257.200684 118.200691,257.077820 118.539459,257.098511 
	C121.377159,255.063187 123.876099,253.007202 126.375038,250.951202 
z"/>
<path fill="#EFAB2D" opacity="1.000000" stroke="none" 
	d="
M90.970360,280.387360 
	C90.528107,279.684296 90.029686,278.797424 90.231071,278.118011 
	C91.065811,275.301880 99.840652,269.132690 103.533203,268.988037 
	C104.023079,269.036713 104.194885,269.228760 104.052078,269.459564 
	C103.622299,270.138306 103.335335,270.586243 103.048370,271.034210 
	C103.048378,271.034210 103.006439,270.996613 102.758591,271.067780 
	C102.340294,271.426666 102.169846,271.714386 101.999405,272.002106 
	C101.676643,272.082520 101.406166,272.248230 100.735260,272.763062 
	C98.072990,274.948822 95.863434,276.870789 93.653870,278.792755 
	C92.847916,279.294830 92.041962,279.796875 90.970360,280.387360 
z"/>
<path fill="#FCF8E0" opacity="1.000000" stroke="none" 
	d="
M227.428116,134.719269 
	C227.706100,134.856079 227.832886,135.230682 227.565002,135.552155 
	C227.060211,136.200165 226.823288,136.526733 226.586365,136.853302 
	C226.143433,137.116989 225.700485,137.380661 224.874725,137.969757 
	C224.224670,138.781204 223.957458,139.267227 223.690247,139.753265 
	C223.690247,139.753265 223.804977,139.798706 223.486038,139.766754 
	C222.773071,140.152145 222.379044,140.569489 221.985016,140.986832 
	C221.985016,140.986832 222.000000,141.000000 221.704224,141.073395 
	C220.927109,141.755417 220.445786,142.364059 219.964447,142.972702 
	C219.964447,142.972702 219.999329,143.000763 219.688049,143.084564 
	C219.022263,143.675629 218.667755,144.182877 218.313263,144.690125 
	C217.892090,144.869629 217.470932,145.049118 216.659637,145.542374 
	C215.893631,146.002396 215.517761,146.148651 215.141907,146.294891 
	C216.450150,140.756668 221.917236,135.424255 227.428116,134.719269 
z"/>
<path fill="#1D0E06" opacity="1.000000" stroke="none" 
	d="
M269.086151,201.022263 
	C268.245605,199.027359 267.889832,197.072281 267.480347,194.822113 
	C270.444214,194.822113 272.661560,194.822113 275.140320,194.822113 
	C275.140320,196.786758 275.140320,198.547333 275.140320,201.062103 
	C273.369171,201.062103 271.470062,201.062103 269.086151,201.022263 
z"/>
<path fill="#FCF8E0" opacity="1.000000" stroke="none" 
	d="
M193.958969,183.656677 
	C196.514847,180.092133 199.437363,176.658279 202.668839,173.093567 
	C204.448776,175.487701 204.351715,177.287231 201.301437,178.787338 
	C198.768997,180.032776 196.635712,182.089859 193.958969,183.656677 
z"/>
<path fill="#FCF8E0" opacity="1.000000" stroke="none" 
	d="
M173.883270,159.014603 
	C173.883270,159.014603 174.087433,158.640976 174.345245,158.183014 
	C174.730759,156.815765 174.858429,155.906479 174.986115,154.997208 
	C174.986115,154.997208 175.139267,154.625076 175.305084,154.329117 
	C175.470901,154.033157 175.845535,153.860992 175.845535,153.860992 
	C175.845535,153.860992 176.006439,154.006775 176.089447,154.079498 
	C175.818726,159.967957 176.352310,166.005402 171.677322,170.876480 
	C171.347610,170.929108 171.095596,171.024979 171.094360,170.720612 
	C171.119476,169.971924 171.145844,169.527588 171.172211,169.083267 
	C171.172195,169.083267 171.075043,169.006302 171.365845,168.840729 
	C171.838364,167.778534 172.020081,166.881882 172.201797,165.985245 
	C172.201797,165.985245 172.359848,165.764542 172.554230,165.357452 
	C172.847580,163.961578 172.946548,162.972794 173.045517,161.983994 
	C173.045517,161.983994 173.199005,161.681229 173.409698,161.284485 
	C173.708008,160.263367 173.795639,159.638992 173.883270,159.014603 
z"/>
<path fill="#FCF8E0" opacity="1.000000" stroke="none" 
	d="
M257.627960,114.039398 
	C259.104034,112.029877 260.934540,110.005852 263.036499,107.852386 
	C264.786652,108.967117 266.265381,110.211281 268.289185,111.914085 
	C264.429962,112.704453 261.206177,113.364677 257.627960,114.039398 
z"/>
<path fill="#EFAB2D" opacity="1.000000" stroke="none" 
	d="
M82.578262,241.843048 
	C82.610435,242.341217 82.274033,242.866745 81.483879,244.101151 
	C84.199921,243.708542 86.399139,243.390640 89.020691,243.120758 
	C85.524376,244.725449 81.762688,247.267761 75.937531,244.985504 
	C78.672264,243.627289 80.440971,242.748856 82.578262,241.843048 
z"/>
<path fill="#EFAB2D" opacity="1.000000" stroke="none" 
	d="
M243.483749,120.846924 
	C241.080627,123.498817 238.344193,126.219139 235.248520,128.942719 
	C237.642990,126.269104 240.396713,123.592232 243.483749,120.846924 
z"/>
<path fill="#EFAB2D" opacity="1.000000" stroke="none" 
	d="
M124.336334,248.248032 
	C122.505371,247.631500 120.617599,246.716476 117.877480,245.388336 
	C117.151955,245.661133 115.381035,246.326981 113.220612,246.974548 
	C112.907692,246.597198 112.984283,246.238113 113.471771,245.451538 
	C116.597038,241.970856 119.281441,242.428726 121.947006,245.092865 
	C122.724510,246.045105 123.502022,246.997330 124.336334,248.248032 
z"/>
<path fill="#FEF6CE" opacity="1.000000" stroke="none" 
	d="
M98.217232,262.340149 
	C98.033722,262.520599 97.646782,262.414398 97.447258,262.400879 
	C96.598717,260.605347 95.949707,258.823334 95.152679,256.634918 
	C97.344971,256.781555 99.369049,256.916931 101.755966,257.383392 
	C102.039703,258.103577 101.960594,258.492676 101.881485,258.881775 
	C101.881485,258.881775 101.874756,258.931549 101.632309,258.972687 
	C101.223839,259.311584 101.057808,259.609344 100.891785,259.907104 
	C100.891785,259.907104 100.955635,259.940155 100.631363,260.003357 
	C99.824776,260.686798 99.342445,261.307098 98.860115,261.927368 
	C98.706985,262.004791 98.553864,262.082245 98.217232,262.340149 
z"/>
<path fill="#EFAB2D" opacity="1.000000" stroke="none" 
	d="
M126.276932,250.641235 
	C123.876099,253.007202 121.377159,255.063187 118.542053,257.162262 
	C118.911140,255.763092 119.419189,254.170135 120.374947,252.919250 
	C121.412445,251.561340 122.866592,250.521774 124.306084,248.985397 
	C125.041687,249.195358 125.610252,249.763306 126.276932,250.641235 
z"/>
<path fill="#EFAB2D" opacity="1.000000" stroke="none" 
	d="
M97.606628,233.332809 
	C93.785881,235.842636 89.619019,238.375900 85.071457,240.890808 
	C88.880676,238.367050 93.070602,235.861649 97.606628,233.332809 
z"/>
<path fill="#FEF6CE" opacity="1.000000" stroke="none" 
	d="
M121.971207,244.668579 
	C119.281441,242.428726 116.597038,241.970856 113.557877,245.186813 
	C112.963058,243.157471 112.597115,240.743256 115.972893,241.087372 
	C118.305405,241.325150 122.047836,239.315338 121.971207,244.668579 
z"/>
<path fill="#FCF8E0" opacity="1.000000" stroke="none" 
	d="
M193.782349,166.900375 
	C193.226578,167.332504 192.670807,167.764633 191.657379,168.520538 
	C190.971008,168.889023 190.742279,168.933731 190.513550,168.978439 
	C190.921371,164.281525 194.699203,162.769913 198.469208,160.853424 
	C198.813400,160.781281 198.920364,160.910004 198.863373,161.227325 
	C198.517105,162.013062 198.227814,162.481476 197.938538,162.949890 
	C197.938538,162.949890 197.997879,163.000351 197.696533,163.075104 
	C196.907959,163.750824 196.420715,164.351776 195.933472,164.952744 
	C195.933472,164.952744 195.997299,164.997559 195.685486,165.055328 
	C194.843231,165.708862 194.312790,166.304626 193.782349,166.900375 
z"/>
<path fill="#FCF8E0" opacity="1.000000" stroke="none" 
	d="
M59.000359,309.299347 
	C59.815144,307.995972 60.637825,307.098175 61.723198,306.098267 
	C61.818077,308.560547 61.650253,311.125000 61.482433,313.689423 
	C60.809143,313.669800 60.135853,313.650177 59.462566,313.630554 
	C59.311127,312.322021 59.159687,311.013489 59.000359,309.299347 
z"/>
<path fill="#EFAB2D" opacity="1.000000" stroke="none" 
	d="
M112.549225,261.953949 
	C111.701744,263.101074 110.479675,264.256195 109.154213,265.715698 
	C108.111465,266.782104 107.172112,267.544128 105.778656,268.600220 
	C104.947983,269.005737 104.571434,269.117249 104.194885,269.228760 
	C104.194885,269.228760 104.023079,269.036713 103.933868,268.941467 
	C106.621323,266.551453 109.397980,264.256683 112.549225,261.953949 
z"/>
<path fill="#FCF8E0" opacity="1.000000" stroke="none" 
	d="
M186.023209,174.011856 
	C185.657364,174.320511 185.291534,174.629181 184.562317,175.280701 
	C183.780853,176.073395 183.362762,176.523193 182.944687,176.973007 
	C182.944687,176.973007 182.467163,177.004745 182.228760,176.984406 
	C182.502106,173.168488 184.159210,170.422623 188.622635,170.334946 
	C187.929291,171.776794 186.976257,172.894318 186.023209,174.011856 
z"/>
<path fill="#FEF6CE" opacity="1.000000" stroke="none" 
	d="
M94.038483,278.834839 
	C95.863434,276.870789 98.072990,274.948822 100.623619,272.976501 
	C101.213371,277.580139 97.262703,277.617828 94.038483,278.834839 
z"/>
<path fill="#FEF6CE" opacity="1.000000" stroke="none" 
	d="
M80.886086,279.113342 
	C79.857872,280.809570 78.438553,282.459747 76.724327,284.218353 
	C76.239502,281.379242 77.097443,279.241730 80.886086,279.113342 
z"/>
<path fill="#EFAB2D" opacity="1.000000" stroke="none" 
	d="
M248.590408,115.979355 
	C247.439041,117.548431 245.972733,119.212936 244.144958,120.845726 
	C245.280823,119.234268 246.778137,117.654526 248.590408,115.979355 
z"/>
<path fill="#FEF6CE" opacity="1.000000" stroke="none" 
	d="
M75.957565,284.318390 
	C75.109291,285.896210 73.892593,287.360962 72.374084,288.949707 
	C73.244560,287.450867 74.416855,285.828125 75.957565,284.318390 
z"/>
<path fill="#EFAB2D" opacity="1.000000" stroke="none" 
	d="
M186.391678,174.009171 
	C186.976257,172.894318 187.929291,171.776794 189.009674,170.366318 
	C189.491119,169.973190 189.845245,169.873001 190.473511,169.740616 
	C189.418472,171.141113 188.089310,172.573807 186.391678,174.009171 
z"/>
<path fill="#EFAB2D" opacity="1.000000" stroke="none" 
	d="
M158.568512,180.893738 
	C158.253616,179.251373 158.280914,177.642807 158.556244,175.793549 
	C159.394821,177.196198 159.985352,178.839554 160.763977,180.813004 
	C160.271637,181.071243 159.591187,180.999405 158.568512,180.893738 
z"/>
<path fill="#EFAB2D" opacity="1.000000" stroke="none" 
	d="
M170.749283,173.708832 
	C170.121429,175.953476 169.414444,177.939545 168.456848,180.203705 
	C168.731415,178.062790 169.256592,175.643799 170.095154,173.100830 
	C170.495773,173.134674 170.582962,173.292450 170.749283,173.708832 
z"/>
<path fill="#EFAB2D" opacity="1.000000" stroke="none" 
	d="
M111.133202,248.595337 
	C109.979950,250.240128 108.530777,251.967865 106.706055,253.682022 
	C106.466393,253.269287 106.602272,252.870132 107.084419,252.122482 
	C107.740265,251.588455 107.884750,251.315506 107.864143,250.955139 
	C108.855186,250.196182 109.846230,249.437225 111.133202,248.595337 
z"/>
<path fill="#FCF8E0" opacity="1.000000" stroke="none" 
	d="
M60.150280,168.176727 
	C61.645061,168.692230 63.105114,169.584732 64.700180,170.770355 
	C63.261986,170.226898 61.688770,169.390320 60.150280,168.176727 
z"/>
<path fill="#EFAB2D" opacity="1.000000" stroke="none" 
	d="
M102.710854,230.429092 
	C101.869873,231.293106 100.708153,232.138062 99.189339,232.955399 
	C100.018204,232.088531 101.204163,231.249283 102.710854,230.429092 
z"/>
<path fill="#EFAB2D" opacity="1.000000" stroke="none" 
	d="
M109.527512,226.908371 
	C108.777107,227.594284 107.682129,228.289032 106.243790,228.954514 
	C106.994606,228.255905 108.088768,227.586563 109.527512,226.908371 
z"/>
<path fill="#FCF8E0" opacity="1.000000" stroke="none" 
	d="
M190.562103,187.062012 
	C191.126068,186.004501 192.054962,184.931213 193.259109,183.744904 
	C192.665253,184.770004 191.796127,185.908112 190.562103,187.062012 
z"/>
<path fill="#EFAB2D" opacity="1.000000" stroke="none" 
	d="
M102.254013,258.895386 
	C101.960594,258.492676 102.039703,258.103577 102.173027,257.419220 
	C102.793861,256.645325 103.360489,256.166687 104.195221,255.626343 
	C103.851067,256.679443 103.238808,257.794220 102.254013,258.895386 
z"/>
<path fill="#EFAB2D" opacity="1.000000" stroke="none" 
	d="
M233.772522,129.523682 
	C233.362503,130.335114 232.664703,131.176743 231.648926,132.029144 
	C232.048874,131.211227 232.766815,130.382553 233.772522,129.523682 
z"/>
<path fill="#EFAB2D" opacity="1.000000" stroke="none" 
	d="
M215.003876,146.544235 
	C215.517761,146.148651 215.893631,146.002396 216.556656,145.757690 
	C216.038544,146.712723 215.233261,147.766190 214.047333,148.744507 
	C214.066406,148.044113 214.466141,147.418839 215.003876,146.544235 
z"/>
<path fill="#EFAB2D" opacity="1.000000" stroke="none" 
	d="
M160.295837,172.913696 
	C159.991104,172.537598 160.049744,172.117599 160.121857,171.378967 
	C160.429825,170.613022 160.724319,170.165710 161.280518,169.403549 
	C161.542206,169.088684 162.009201,169.025497 162.009201,169.025497 
	C161.559204,170.306931 161.109222,171.588379 160.295837,172.913696 
z"/>
<path fill="#FEF6CE" opacity="1.000000" stroke="none" 
	d="
M70.678238,290.037750 
	C70.272057,291.017090 69.481735,291.977234 68.402382,293.065735 
	C68.840271,292.135559 69.567184,291.077057 70.678238,290.037750 
z"/>
<path fill="#EFAB2D" opacity="1.000000" stroke="none" 
	d="
M93.295135,242.458817 
	C93.909065,241.938660 94.838814,241.504776 96.123962,241.131561 
	C95.523232,241.643188 94.567101,242.094147 93.295135,242.458817 
z"/>
<path fill="#FCF8E0" opacity="1.000000" stroke="none" 
	d="
M163.773071,163.103424 
	C163.654694,164.313660 163.152328,165.557434 162.377441,167.004181 
	C162.532974,165.850418 162.961014,164.493698 163.773071,163.103424 
z"/>
<path fill="#FEF6CE" opacity="1.000000" stroke="none" 
	d="
M104.052078,269.459564 
	C104.571434,269.117249 104.947983,269.005737 105.617401,268.858704 
	C105.196724,269.562195 104.483177,270.301178 103.408997,271.037170 
	C103.335335,270.586243 103.622299,270.138306 104.052078,269.459564 
z"/>
<path fill="#EFAB2D" opacity="1.000000" stroke="none" 
	d="
M212.035522,150.710190 
	C211.980270,150.087463 212.296387,149.537476 212.809204,148.726807 
	C213.005905,148.466141 213.358780,148.505173 213.527985,148.554352 
	C213.267105,149.330002 212.837021,150.056473 212.035522,150.710190 
z"/>
<path fill="#FEF6CE" opacity="1.000000" stroke="none" 
	d="
M87.475311,284.067261 
	C87.578995,283.717834 87.973465,283.329559 88.659210,282.905243 
	C88.555695,283.255615 88.160889,283.641998 87.475311,284.067261 
z"/>
<path fill="#EFAB2D" opacity="1.000000" stroke="none" 
	d="
M276.958954,88.974571 
	C277.183167,88.914528 277.400269,88.848969 277.617371,88.783409 
	C277.428650,88.758942 277.239929,88.734474 276.986755,88.836731 
	C276.922302,88.963470 276.951843,88.969063 276.958954,88.974571 
z"/>
<path fill="#EFAB2D" opacity="1.000000" stroke="none" 
	d="
M105.711227,254.045288 
	C105.727509,254.518936 105.460152,255.063004 104.864349,255.577209 
	C104.833122,255.070145 105.130356,254.592926 105.711227,254.045288 
z"/>
<path fill="#FCF8E0" opacity="1.000000" stroke="none" 
	d="
M64.028114,302.212769 
	C64.444199,302.093811 64.860291,301.974823 65.599716,301.826324 
	C65.505112,302.188934 65.087166,302.581055 64.347687,302.801025 
	C64.026138,302.628906 64.028114,302.212769 64.028114,302.212769 
z"/>
<path fill="#EFAB2D" opacity="1.000000" stroke="none" 
	d="
M279.991577,86.602501 
	C280.027649,86.602509 279.955475,86.602486 279.991577,86.602501 
z"/>
<path fill="#FBDA8B" opacity="1.000000" stroke="none" 
	d="
M111.195747,212.841858 
	C110.953819,212.530579 110.922905,212.076019 110.982941,211.289749 
	C111.184845,211.538223 111.295799,212.118393 111.195747,212.841858 
z"/>
<path fill="#EFAB2D" opacity="1.000000" stroke="none" 
	d="
M105.654053,228.896622 
	C105.490860,229.253281 105.019203,229.607452 104.233032,229.960739 
	C104.394203,229.604614 104.869896,229.249374 105.654053,228.896622 
z"/>
<path fill="#FEF6CE" opacity="1.000000" stroke="none" 
	d="
M86.288620,284.952637 
	C86.137817,284.685547 86.319603,284.442291 86.845596,284.244324 
	C86.978073,284.509369 86.788544,284.738312 86.288620,284.952637 
z"/>
<path fill="#FEF6CE" opacity="1.000000" stroke="none" 
	d="
M107.653786,251.041351 
	C107.884750,251.315506 107.740265,251.588455 107.193817,251.823822 
	C107.017380,251.558609 107.179543,251.309921 107.653786,251.041351 
z"/>
<path fill="#EFAB2D" opacity="1.000000" stroke="none" 
	d="
M190.543976,169.186890 
	C190.742279,168.933731 190.971008,168.889023 191.539505,168.761475 
	C191.679443,169.021408 191.479614,169.364182 190.971497,169.757050 
	C190.663193,169.807144 190.574387,169.395325 190.543976,169.186890 
z"/>
<path fill="#FEF6CE" opacity="1.000000" stroke="none" 
	d="
M63.784370,302.232544 
	C64.028114,302.212769 64.026138,302.628906 64.039688,302.837097 
	C64.053230,303.045288 63.601162,303.086273 63.374443,303.086578 
	C63.082527,302.716309 63.213497,302.438110 63.784370,302.232544 
z"/>
<path fill="#FCF8E0" opacity="1.000000" stroke="none" 
	d="
M67.131081,300.878906 
	C67.070602,300.661255 67.266403,300.373444 67.725349,300.025543 
	C67.788116,300.246552 67.587738,300.527649 67.131081,300.878906 
z"/>
<path fill="#FEF6CE" opacity="1.000000" stroke="none" 
	d="
M62.429646,299.026489 
	C62.712986,299.233398 62.641300,299.504395 62.152649,299.777832 
	C61.972378,299.565918 62.085354,299.336029 62.429646,299.026489 
z"/>
<path fill="#FEF6CE" opacity="1.000000" stroke="none" 
	d="
M63.536701,298.015045 
	C63.754440,298.283264 63.626713,298.503357 63.109711,298.591614 
	C63.013508,298.356842 63.170441,298.192566 63.536701,298.015045 
z"/>
<path fill="#FCF8E0" opacity="1.000000" stroke="none" 
	d="
M72.057373,296.847137 
	C71.996323,296.619324 72.209343,296.328308 72.689507,295.963715 
	C72.748245,296.188080 72.539841,296.485992 72.057373,296.847137 
z"/>
<path fill="#FEF6CE" opacity="1.000000" stroke="none" 
	d="
M66.937691,294.170776 
	C67.026581,294.414948 66.830704,294.725311 66.368011,295.126343 
	C66.285095,294.890350 66.469009,294.563660 66.937691,294.170776 
z"/>
<path fill="#FCF8E0" opacity="1.000000" stroke="none" 
	d="
M161.983459,168.767456 
	C162.009201,169.025497 161.542206,169.088684 161.309906,169.127228 
	C161.058670,168.822586 161.167450,168.526306 161.606140,168.144821 
	C161.858124,168.178284 161.907913,168.343842 161.983459,168.767456 
z"/>
<path fill="#FEF6CE" opacity="1.000000" stroke="none" 
	d="
M71.830025,289.131165 
	C71.905319,289.349152 71.729858,289.640808 71.299545,289.999908 
	C71.222885,289.779846 71.401077,289.492371 71.830025,289.131165 
z"/>
<path fill="#FCF8E0" opacity="1.000000" stroke="none" 
	d="
M59.114494,167.237579 
	C59.323456,167.121048 59.652653,167.236023 60.075424,167.602570 
	C59.857574,167.725784 59.546150,167.597427 59.114494,167.237579 
z"/>
<path fill="#EFAB2D" opacity="1.000000" stroke="none" 
	d="
M112.308685,247.431747 
	C112.448296,247.719589 112.331833,248.108078 111.883759,248.483582 
	C111.718964,248.157867 111.885796,247.845123 112.308685,247.431747 
z"/>
<path fill="#EFAB2D" opacity="1.000000" stroke="none" 
	d="
M89.608170,281.335236 
	C89.544235,281.060089 89.699585,280.756927 90.124001,280.562134 
	C90.316162,280.981873 90.127625,281.194092 89.608170,281.335236 
z"/>
<path fill="#FCF8E0" opacity="1.000000" stroke="none" 
	d="
M236.327301,136.948242 
	C236.142548,136.693787 236.296295,136.435379 236.811035,136.207916 
	C236.959610,136.459015 236.790863,136.694168 236.327301,136.948242 
z"/>
<path fill="#FEF6CE" opacity="1.000000" stroke="none" 
	d="
M102.235550,271.925232 
	C102.169846,271.714386 102.340294,271.426666 102.767380,271.094482 
	C102.953766,271.394867 102.769661,271.660980 102.235550,271.925232 
z"/>
<path fill="#EFAB2D" opacity="1.000000" stroke="none" 
	d="
M198.293060,162.934479 
	C198.227814,162.481476 198.517105,162.013062 198.919647,161.289276 
	C201.113174,159.390274 203.193451,157.746674 205.586594,155.991882 
	C203.482178,158.226852 201.064880,160.572968 198.293060,162.934479 
z"/>
<path fill="#EFAB2D" opacity="1.000000" stroke="none" 
	d="
M206.219086,155.897797 
	C206.362930,155.292404 206.848038,154.683411 207.616699,153.978363 
	C207.453629,154.552917 207.007004,155.223541 206.219086,155.897797 
z"/>
<path fill="#EFAB2D" opacity="1.000000" stroke="none" 
	d="
M220.292755,142.951080 
	C220.445786,142.364059 220.927109,141.755417 221.697784,141.065643 
	C221.531738,141.632843 221.076385,142.281143 220.292755,142.951080 
z"/>
<path fill="#EFAB2D" opacity="1.000000" stroke="none" 
	d="
M196.265732,164.932770 
	C196.420715,164.351776 196.907959,163.750824 197.672623,163.044495 
	C197.499359,163.597031 197.048676,164.254913 196.265732,164.932770 
z"/>
<path fill="#EFAB2D" opacity="1.000000" stroke="none" 
	d="
M194.129196,166.900848 
	C194.312790,166.304626 194.843231,165.708862 195.663391,165.023224 
	C195.460739,165.589325 194.968384,166.245316 194.129196,166.900848 
z"/>
<path fill="#EFAB2D" opacity="1.000000" stroke="none" 
	d="
M223.991394,139.716949 
	C223.957458,139.267227 224.224670,138.781204 224.770569,138.212097 
	C224.797043,138.646225 224.544800,139.163437 223.991394,139.716949 
z"/>
<path fill="#EFAB2D" opacity="1.000000" stroke="none" 
	d="
M222.301849,140.972748 
	C222.379044,140.569489 222.773071,140.152145 223.464111,139.709076 
	C223.380325,140.108459 222.999496,140.533554 222.301849,140.972748 
z"/>
<path fill="#EFAB2D" opacity="1.000000" stroke="none" 
	d="
M218.667114,144.682617 
	C218.667755,144.182877 219.022263,143.675629 219.674713,143.066895 
	C219.655411,143.535309 219.338181,144.105209 218.667114,144.682617 
z"/>
<path fill="#EFAB2D" opacity="1.000000" stroke="none" 
	d="
M183.289261,176.942963 
	C183.362762,176.523193 183.780853,176.073395 184.496490,175.520325 
	C184.407318,175.915710 184.020584,176.414322 183.289261,176.942963 
z"/>
<path fill="#EFAB2D" opacity="1.000000" stroke="none" 
	d="
M210.257507,151.944122 
	C210.339005,151.541870 210.743454,151.134491 211.439575,150.685364 
	C211.347672,151.075424 210.964050,151.507202 210.257507,151.944122 
z"/>
<path fill="#EFAB2D" opacity="1.000000" stroke="none" 
	d="
M226.905090,136.781021 
	C226.823288,136.526733 227.060211,136.200165 227.578522,135.749435 
	C227.647873,135.986420 227.435837,136.347580 226.905090,136.781021 
z"/>
<path fill="#EFAB2D" opacity="1.000000" stroke="none" 
	d="
M208.131790,153.852539 
	C208.070053,153.645248 208.260330,153.365112 208.705597,153.010834 
	C208.768326,153.217712 208.576065,153.498703 208.131790,153.852539 
z"/>
<path fill="#EFAB2D" opacity="1.000000" stroke="none" 
	d="
M209.179001,152.869965 
	C209.110107,152.664093 209.282990,152.367996 209.709717,152.000854 
	C209.782654,152.213104 209.601700,152.496414 209.179001,152.869965 
z"/>
<path fill="#F3F1F0" opacity="1.000000" stroke="none" 
	d="
M231.173889,224.300171 
	C228.496384,224.813797 226.106735,224.989441 223.821701,225.157410 
	C222.147568,218.183029 222.738083,217.699799 231.863022,218.411133 
	C231.730179,220.248718 231.595947,222.105469 231.173889,224.300171 
z"/>
<path fill="#F3F1F0" opacity="1.000000" stroke="none" 
	d="
M290.516937,224.848450 
	C287.886841,218.580917 289.299652,217.416733 297.591309,218.550980 
	C298.634735,225.070145 298.235809,225.454971 290.516937,224.848450 
z"/>
<path fill="#F3F1F0" opacity="1.000000" stroke="none" 
	d="
M178.220367,209.394043 
	C185.642792,206.864594 187.744827,208.347839 187.746613,215.602036 
	C187.746979,217.093719 187.729294,218.586716 187.782654,220.076843 
	C187.921432,223.953857 185.817871,225.342865 182.227051,225.305710 
	C178.603912,225.268219 176.558136,223.827438 176.945496,219.915405 
	C177.282806,216.509033 177.599167,213.100586 178.220367,209.394043 
z"/>
<path fill="#FAA202" opacity="1.000000" stroke="none" 
	d="
M98.404480,189.030670 
	C93.914772,186.305801 89.809441,183.558548 85.662903,180.874985 
	C84.746948,180.282181 83.685104,179.914795 82.711624,178.562195 
	C84.289268,178.562195 86.053535,178.101364 87.408913,178.650223 
	C91.192284,180.182373 94.786873,182.174271 98.491814,183.908096 
	C103.799782,186.392059 109.531860,188.219788 114.347328,191.430771 
	C118.552269,194.234619 114.677689,196.640518 111.924034,199.454163 
	C109.655518,194.904388 102.313255,196.157547 102.137093,189.178329 
	C101.055573,189.131012 99.914795,189.081116 98.404480,189.030670 
z"/>
<path fill="#EFAB2D" opacity="1.000000" stroke="none" 
	d="
M115.730026,259.063843 
	C115.253120,259.985535 114.402245,260.870361 113.248657,261.839783 
	C113.749321,260.958618 114.552696,259.992798 115.730026,259.063843 
z"/>
<path fill="#EFAB2D" opacity="1.000000" stroke="none" 
	d="
M117.822540,257.164490 
	C117.668404,257.788483 117.170441,258.376251 116.384598,259.035736 
	C116.557381,258.447723 117.018051,257.788025 117.822540,257.164490 
z"/>
<path fill="#EFAB2D" opacity="1.000000" stroke="none" 
	d="
M99.203583,261.922943 
	C99.342445,261.307098 99.824776,260.686798 100.595444,259.981506 
	C100.438210,260.570496 99.992630,261.244507 99.203583,261.922943 
z"/>
<path fill="#EFAB2D" opacity="1.000000" stroke="none" 
	d="
M101.147560,259.842957 
	C101.057808,259.609344 101.223839,259.311584 101.649109,258.955200 
	C101.740021,259.190643 101.571686,259.484711 101.147560,259.842957 
z"/>
<path fill="#EFAB2D" opacity="1.000000" stroke="none" 
	d="
M167.621552,181.012878 
	C166.978195,185.001358 164.760620,182.350021 162.655823,181.594086 
	C163.986969,181.205383 165.568497,181.105377 167.621552,181.012878 
z"/>
<path fill="#EFAB2D" opacity="1.000000" stroke="none" 
	d="
M177.191711,139.137695 
	C176.922882,138.470322 176.945328,138.055191 176.991852,137.328003 
	C181.114914,137.853683 178.385254,140.644638 178.352844,142.887650 
	C177.891205,141.919876 177.687088,140.654922 177.191711,139.137695 
z"/>
<path fill="#EFAB2D" opacity="1.000000" stroke="none" 
	d="
M176.630585,148.231583 
	C176.740723,148.859406 176.609863,149.702286 176.232391,150.757782 
	C176.120392,150.129135 176.255005,149.287903 176.630585,148.231583 
z"/>
<path fill="#EFAB2D" opacity="1.000000" stroke="none" 
	d="
M177.652176,144.224579 
	C177.739243,144.844666 177.572906,145.676224 177.205200,146.759827 
	C177.135483,146.153275 177.267120,145.294647 177.652176,144.224579 
z"/>
<path fill="#EFAB2D" opacity="1.000000" stroke="none" 
	d="
M175.002563,143.690765 
	C174.905075,142.963852 175.146210,142.133240 175.664703,141.120468 
	C175.741760,141.821243 175.541458,142.704147 175.002563,143.690765 
z"/>
<path fill="#EFAB2D" opacity="1.000000" stroke="none" 
	d="
M174.719574,155.226654 
	C174.858429,155.906479 174.730759,156.815765 174.353516,157.970276 
	C174.220322,157.295731 174.336685,156.375916 174.719574,155.226654 
z"/>
<path fill="#EFAB2D" opacity="1.000000" stroke="none" 
	d="
M172.754456,162.234253 
	C172.946548,162.972794 172.847580,163.961578 172.495255,165.235199 
	C172.315735,164.508194 172.389557,163.496338 172.754456,162.234253 
z"/>
<path fill="#EFAB2D" opacity="1.000000" stroke="none" 
	d="
M171.894257,166.173752 
	C172.020081,166.881882 171.838364,167.778534 171.392075,168.896881 
	C171.280579,168.199814 171.433640,167.281036 171.894257,166.173752 
z"/>
<path fill="#EFAB2D" opacity="1.000000" stroke="none" 
	d="
M176.195862,140.814941 
	C176.089157,140.397110 176.255600,139.827255 176.669876,139.082703 
	C176.768143,139.492966 176.618576,140.077942 176.195862,140.814941 
z"/>
<path fill="#EFAB2D" opacity="1.000000" stroke="none" 
	d="
M159.209595,174.839386 
	C159.115326,174.432404 159.280090,173.857086 159.698410,173.110931 
	C159.790848,173.517075 159.629730,174.094040 159.209595,174.839386 
z"/>
<path fill="#EFAB2D" opacity="1.000000" stroke="none" 
	d="
M170.920654,169.176178 
	C171.145844,169.527588 171.119476,169.971924 170.959564,170.723877 
	C170.773697,170.444031 170.721390,169.856567 170.920654,169.176178 
z"/>
<path fill="#EFAB2D" opacity="1.000000" stroke="none" 
	d="
M173.639374,159.228928 
	C173.795639,159.638992 173.708008,160.263367 173.389343,161.115997 
	C173.237366,160.710571 173.316422,160.076904 173.639374,159.228928 
z"/>
<path fill="#EFAB2D" opacity="1.000000" stroke="none" 
	d="
M175.837891,153.554810 
	C175.845535,153.860992 175.470901,154.033157 175.288086,154.128632 
	C175.175873,153.634827 175.246475,153.045547 175.532959,152.246536 
	C175.776001,152.440735 175.803116,152.844666 175.837891,153.554810 
z"/>
<path fill="#EFAB2D" opacity="1.000000" stroke="none" 
	d="
M172.115143,148.792130 
	C172.012436,148.351379 172.207520,147.762161 172.649902,146.977280 
	C172.735794,147.402298 172.574371,148.022980 172.115143,148.792130 
z"/>
<path fill="#EFAB2D" opacity="1.000000" stroke="none" 
	d="
M174.065857,144.892212 
	C173.946960,144.665344 174.094040,144.325470 174.497482,143.871979 
	C174.613159,144.098648 174.472488,144.438919 174.065857,144.892212 
z"/>
</svg>